<svg width="18" height="19" viewBox="0 0 18 19" fill="none" xmlns="http://www.w3.org/2000/svg">
<path fill-rule="evenodd" clip-rule="evenodd" d="M9 18.5C13.9706 18.5 18 14.4706 18 9.5C18 4.52944 13.9706 0.5 9 0.5C4.02944 0.5 0 4.52944 0 9.5C0 14.4706 4.02944 18.5 9 18.5ZM8.91614 6.41436C8.57352 6.4082 8.31659 6.56593 8.19317 6.86008C7.87265 7.62399 6.99354 7.98342 6.22963 7.6629C5.46572 7.34238 5.10629 6.46327 5.42681 5.69936C6.75678 2.52961 11.2192 2.77026 12.406 5.71983C12.8704 6.87402 12.7137 7.91368 12.3124 8.71482C11.9408 9.45657 11.3883 9.94249 11.1086 10.1704C10.7681 10.4478 10.4833 10.7475 10.2963 10.9863C10.2345 11.0652 10.1915 11.1272 10.1639 11.1703C10.0033 11.8258 9.41189 12.3123 8.70685 12.3123C7.87842 12.3123 7.20685 11.6407 7.20685 10.8123C7.20685 10.3364 7.4125 9.94455 7.49686 9.78943C7.61797 9.56677 7.77161 9.34449 7.93431 9.13673C8.262 8.71826 8.70432 8.25962 9.21361 7.84465C9.38142 7.70791 9.54314 7.54471 9.63011 7.37111C9.6678 7.29587 9.68551 7.2299 9.68945 7.16578C9.69317 7.10525 9.68773 7.00101 9.6228 6.83961C9.53097 6.61138 9.28336 6.42097 8.91614 6.41436ZM10.1889 14.3663C10.1889 15.1947 9.51738 15.8663 8.68895 15.8663C7.86052 15.8663 7.18895 15.1947 7.18895 14.3663C7.18895 13.5378 7.86052 12.8663 8.68895 12.8663C9.51738 12.8663 10.1889 13.5378 10.1889 14.3663Z" fill="#4738AB"/>
</svg>
