<svg width="10" height="16" viewBox="0 0 10 16" fill="none" xmlns="http://www.w3.org/2000/svg">
<path d="M8.37391 14.4262V3.66037C5.26085 3.00345 2.20015 3.44301 0.999983 3.67069V14.21C0.999983 14.2124 1.00023 14.2131 1.00095 14.2145C1.00213 14.2169 1.00548 14.2222 1.01264 14.228C1.02837 14.2409 1.04595 14.2444 1.05997 14.2421C2.43925 14.0169 5.31217 13.7163 8.32259 14.4435C8.33798 14.4472 8.35374 14.444 8.36659 14.4344C8.37095 14.4311 8.37308 14.4284 8.37388 14.4272C8.3739 14.4269 8.37391 14.4266 8.37391 14.4262Z" stroke="#F5F5F5" stroke-width="1.33333"/>
<path d="M8.37392 3.65032C8.37392 3.65031 8.37392 3.6503 8.37392 3.65032C8.37392 3.65032 8.37392 3.65032 8.37392 3.65032ZM8.37392 14.3957V3.65082C8.37367 3.65025 8.37303 3.64902 8.37172 3.64732C8.36781 3.64227 8.36073 3.63668 8.35075 3.63378C6.34858 3.0503 4.87716 2.1408 3.88404 1.34584C3.88025 1.3428 3.85916 1.32799 3.80575 1.3242C3.75094 1.32031 3.68185 1.33027 3.61427 1.35762C3.54596 1.38527 3.50346 1.42066 3.48411 1.44402C3.47993 1.44906 3.47741 1.4527 3.47594 1.45507V11.0383C3.9049 11.5652 5.46056 13.2752 8.37392 14.3957ZM3.47416 1.45848C3.4742 1.45847 3.47441 1.45806 3.47468 1.45727L3.47416 1.45848Z" fill="#F5F5F5" stroke="#F5F5F5" stroke-width="1.33333"/>
</svg>
