<svg width="17" height="16" viewBox="0 0 17 16" fill="none" xmlns="http://www.w3.org/2000/svg">
<path fill-rule="evenodd" clip-rule="evenodd" d="M7.85885 3.61966C5.8338 3.61966 4.19218 5.26128 4.19218 7.28632C4.19218 9.31137 5.8338 10.953 7.85885 10.953C9.88389 10.953 11.5255 9.31137 11.5255 7.28632C11.5255 5.26128 9.88389 3.61966 7.85885 3.61966ZM1.52551 7.28632C1.52551 3.78852 4.36104 0.952991 7.85885 0.952991C11.3566 0.952991 14.1922 3.78852 14.1922 7.28632C14.1922 10.7841 11.3566 13.6197 7.85885 13.6197C4.36104 13.6197 1.52551 10.7841 1.52551 7.28632Z" fill="#F5F5F5"/>
<path fill-rule="evenodd" clip-rule="evenodd" d="M10.4729 10.3158C10.9936 9.79507 11.8378 9.79507 12.3585 10.3158L14.834 12.7912C15.3547 13.3119 15.3547 14.1562 14.834 14.6769C14.3133 15.1976 13.469 15.1976 12.9483 14.6769L10.4729 12.2014C9.95217 11.6807 9.95217 10.8365 10.4729 10.3158Z" fill="#F5F5F5"/>
</svg>
