<svg width="18" height="19" viewBox="0 0 18 19" fill="none" xmlns="http://www.w3.org/2000/svg">
<path fill-rule="evenodd" clip-rule="evenodd" d="M13.2941 0.808443C13.6953 0.397186 14.3458 0.397186 14.7471 0.808443L17.6991 3.83436C17.8918 4.03186 18 4.29971 18 4.57901C18 4.85831 17.8918 5.12616 17.6991 5.32366L14.7471 8.34958C14.3458 8.76083 13.6953 8.76083 13.2941 8.34958C12.8929 7.93832 12.8929 7.27154 13.2941 6.86028L14.4923 5.6321H13.5356C12.6522 5.6321 11.9758 6.03597 11.3019 6.81878C10.7037 7.51363 10.1912 8.40392 9.59797 9.43453C9.48167 9.63658 9.36227 9.84403 9.2385 10.0564C7.8032 12.5199 5.85741 15.507 1.72998 15.507H1.02737C0.459971 15.507 0 15.0356 0 14.454C0 13.8724 0.459971 13.4009 1.02737 13.4009H1.72998C4.61952 13.4009 6.03294 11.4506 7.47441 8.97652C7.58171 8.79237 7.69003 8.60365 7.7998 8.41239C8.38918 7.38556 9.02064 6.28541 9.76126 5.42516C10.6814 4.35642 11.8755 3.52592 13.5356 3.52592H14.4923L13.2941 2.29774C12.8929 1.88648 12.8929 1.2197 13.2941 0.808443Z" fill="#4738AB"/>
<path fill-rule="evenodd" clip-rule="evenodd" d="M13.2941 18.1916C13.6953 18.6028 14.3458 18.6028 14.747 18.1916L17.699 15.1656C17.8917 14.9681 18 14.7003 18 14.421C18 14.1417 17.8917 13.8738 17.699 13.6763L14.747 10.6504C14.3458 10.2392 13.6953 10.2392 13.2941 10.6504C12.8929 11.0617 12.8929 11.7285 13.2941 12.1397L14.4923 13.3679H13.5356C12.6496 13.3679 11.9728 12.9653 11.2997 12.1883C10.7019 11.4982 10.1898 10.6141 9.59659 9.58988C9.48027 9.38905 9.36083 9.18284 9.23702 8.97165C7.80036 6.52113 5.8543 3.55409 1.72994 3.55409H1.02771C0.460302 3.55409 0 4.02557 0 4.60718C0 5.18878 0.459971 5.66027 1.02737 5.66027H1.72994C4.62256 5.66027 6.03571 7.60013 7.47582 10.0565C7.58307 10.2394 7.69135 10.4269 7.80112 10.617C8.39049 11.6375 9.02232 12.7315 9.76332 13.5868C10.6844 14.65 11.8779 15.4741 13.5356 15.4741H14.4923L13.2941 16.7023C12.8929 17.1135 12.8929 17.7803 13.2941 18.1916Z" fill="#4738AB"/>
</svg>
