<svg width="17" height="16" viewBox="0 0 17 16" fill="none" xmlns="http://www.w3.org/2000/svg">
<path d="M6.47398 4.3879L5.95273 4.05309L6.47398 4.38789L8.5 1.23359L10.526 4.38789C10.7066 4.669 10.9861 4.87209 11.3092 4.95694L14.9352 5.90906L12.5614 8.81066L13.0774 9.23279L12.5614 8.81066C12.3498 9.06925 12.2431 9.39784 12.2622 9.73139L12.4772 13.4741L8.98406 12.1131C8.67275 11.9918 8.32725 11.9918 8.01594 12.1131L4.5228 13.4741L4.73777 9.73139C4.75693 9.39784 4.65016 9.06925 4.43861 8.81066L2.06476 5.90906L5.69076 4.95694C6.01391 4.87209 6.29342 4.669 6.47398 4.3879Z" stroke="#F5F5F5" stroke-width="1.33333"/>
</svg>
