<svg width="16" height="16" viewBox="0 0 16 16" fill="none" xmlns="http://www.w3.org/2000/svg">
<path fill-rule="evenodd" clip-rule="evenodd" d="M4.36897 7.28722H1.60082C0.716714 7.28722 0 8.00394 0 8.88805V14.3992C0 15.2833 0.716712 16 1.60082 16H14.3992C15.2833 16 16 15.2833 16 14.3992V8.88805C16 8.00394 15.2833 7.28722 14.3992 7.28722H11.6711C12.0019 5.92444 12.5503 3.52724 12.9593 1.04742C13.0438 0.534863 12.5293 0.130285 12.0386 0.258257C10.473 0.666598 9.19709 0.34629 8.52836 0.0921429C8.20509 -0.0307143 7.83498 -0.0307143 7.51171 0.0921429C6.84298 0.34629 5.56706 0.666598 4.00147 0.258258C3.51082 0.130285 2.99626 0.534863 3.08079 1.04742C3.48974 3.52724 4.03819 5.92444 4.36897 7.28722ZM7.38047 4.04517L7.57535 7.0714H8.44258L8.6516 4.04196C8.67762 3.6648 8.99645 3.38072 9.36372 3.40744C9.73099 3.43417 10.0076 3.76158 9.9816 4.13873L9.77926 7.0714H10.3493C10.432 6.73266 10.5305 6.32023 10.6383 5.85163C10.8977 4.72464 11.2088 3.28048 11.4824 1.75949C9.98275 1.95982 8.7683 1.64331 8.06559 1.37626C8.04093 1.36688 7.99913 1.36689 7.97448 1.37626C7.27177 1.64331 6.05732 1.95982 4.55771 1.75949C4.83122 3.28048 5.14241 4.72464 5.40173 5.85163C5.50955 6.32023 5.60809 6.73266 5.6908 7.0714H6.23911L6.05005 4.13552C6.02575 3.75824 6.30388 3.43217 6.67127 3.40722C7.03866 3.38228 7.35618 3.66789 7.38047 4.04517ZM1.34204 9.01455C1.34204 8.81563 1.5033 8.65436 1.70223 8.65436H14.2955C14.4944 8.65436 14.6557 8.81563 14.6557 9.01455V14.3022C14.6557 14.5011 14.4944 14.6624 14.2955 14.6624H1.70223C1.5033 14.6624 1.34204 14.5011 1.34204 14.3022V9.01455Z" fill="#F5F5F5"/>
</svg>
